<?xml version="1.0" encoding="UTF-8"?>
<svg width="24" height="24" viewBox="0 0 24 24" fill="none" xmlns="http://www.w3.org/2000/svg">
    <path d="M12 4C10.3431 4 9 5.34315 9 7C9 8.65685 10.3431 10 12 10C13.6569 10 15 8.65685 15 7C15 5.34315 13.6569 4 12 4Z" fill="#2196F3"/>
    <path d="M7 14C5.34315 14 4 15.3431 4 17V19H8V17C8 15.3431 6.65685 14 5 14H7Z" fill="#2196F3"/>
    <path d="M17 14C15.3431 14 14 15.3431 14 17V19H18V17C18 15.3431 16.6569 14 15 14H17Z" fill="#2196F3"/>
    <path d="M12 10C14.2091 10 16 11.7909 16 14V16H8V14C8 11.7909 9.79086 10 12 10Z" fill="#2196F3"/>
</svg> 